<svg id="_50" data-name="50" xmlns="http://www.w3.org/2000/svg" viewBox="0 0 512 512"><defs><style>.cls-1{fill:#fa80a4;}.cls-2{fill:#ff97ba;}.cls-3{fill:#ea1b8c;}.cls-4{fill:#f946a0;}.cls-5{fill:#ff76c1;}.cls-6{fill:#f4e6f4;}.cls-7{fill:#fff;}</style></defs><title>50-heart-icons</title><circle class="cls-1" cx="256" cy="256" r="256"/><circle class="cls-2" cx="256" cy="256" r="207.66"/><path class="cls-3" d="M341.45,288.17,266,363.64a14.12,14.12,0,0,1-20,0L183.38,301l-12.83-12.84a51.35,51.35,0,0,1,0-72.62,52.05,52.05,0,0,1,7.87-6.46,51.39,51.39,0,0,1,64.74,6.46L256,228.4l12.84-12.85a51.35,51.35,0,0,1,72.61,72.62Z"/><path class="cls-4" d="M341.45,288.17l-61.13,61.14a14.12,14.12,0,0,1-20,0l-62.63-62.63-12.83-12.84a51.35,51.35,0,0,1-6.46-64.75,51.39,51.39,0,0,1,64.74,6.46L256,228.4l12.84-12.85a51.35,51.35,0,0,1,72.61,72.62Z"/><ellipse class="cls-5" cx="321.37" cy="224.68" rx="13.03" ry="21.54" transform="translate(-50.51 349.02) rotate(-53.45)"/><ellipse class="cls-5" cx="341.87" cy="256.13" rx="8.23" ry="13.61" transform="translate(-33.91 52.99) rotate(-8.45)"/><path class="cls-6" d="M469.77,256a246.2,246.2,0,0,1-15.83,87.27,6.72,6.72,0,0,1-3.62,3.81,6.83,6.83,0,0,1-2.8.6,6.58,6.58,0,0,1-2-.32,6.86,6.86,0,0,1-4.39-9,233.77,233.77,0,0,0,0-164.78,6.87,6.87,0,0,1,12.85-4.86A246.13,246.13,0,0,1,469.77,256Z"/><path class="cls-6" d="M424.9,256A202.66,202.66,0,0,1,411,329.93a6.88,6.88,0,0,1-8.45,4.08l0,0a6.86,6.86,0,0,1-4.33-9.08,189,189,0,0,0,0-137.82,6.87,6.87,0,0,1,4.33-9.09l0,0a6.91,6.91,0,0,1,8.45,4.09A202.55,202.55,0,0,1,424.9,256Z"/><path class="cls-6" d="M385.21,256A162.78,162.78,0,0,1,373,318.2a7,7,0,0,1-3.59,3.69,6.81,6.81,0,0,1-4.82.29l0,0a6.87,6.87,0,0,1-4.28-9.22,149.26,149.26,0,0,0,0-113.89,6.87,6.87,0,0,1,4.28-9.22h0a6.76,6.76,0,0,1,4.82.29,6.88,6.88,0,0,1,3.59,3.68A162.8,162.8,0,0,1,385.21,256Z"/><path class="cls-7" d="M469.77,256a246.2,246.2,0,0,1-15.83,87.27,6.72,6.72,0,0,1-3.62,3.81,6.85,6.85,0,0,1-3.65-8.69,233.77,233.77,0,0,0,0-164.78,6.85,6.85,0,0,1,3.65-8.68,6.77,6.77,0,0,1,3.62,3.82A246.13,246.13,0,0,1,469.77,256Z"/><path class="cls-7" d="M424.9,256A202.66,202.66,0,0,1,411,329.93a6.91,6.91,0,0,1-3.63,3.8,6.87,6.87,0,0,1-3.63-8.82,188.87,188.87,0,0,0,0-137.82,6.87,6.87,0,0,1,3.62-8.82,6.8,6.8,0,0,1,3.64,3.8A202.55,202.55,0,0,1,424.9,256Z"/><path class="cls-7" d="M385.21,256A162.78,162.78,0,0,1,373,318.2a7,7,0,0,1-3.59,3.69,6.88,6.88,0,0,1-3.55-8.95,149.26,149.26,0,0,0,0-113.89,6.87,6.87,0,0,1,3.55-8.94,6.88,6.88,0,0,1,3.59,3.68A162.8,162.8,0,0,1,385.21,256Z"/><path class="cls-6" d="M42.23,256a246.15,246.15,0,0,1,15.83-87.26,6.89,6.89,0,0,1,6.42-4.42,6.9,6.9,0,0,1,6.43,9.29,233.77,233.77,0,0,0,0,164.78,6.85,6.85,0,0,1-4.39,9,6.87,6.87,0,0,1-8.46-4.09A246.19,246.19,0,0,1,42.23,256Z"/><path class="cls-6" d="M87.1,256A202.6,202.6,0,0,1,101,182.07a6.88,6.88,0,0,1,8.45-4.08h0a6.87,6.87,0,0,1,4.33,9.09,189,189,0,0,0,0,137.82,6.87,6.87,0,0,1-4.33,9.09h0a6.74,6.74,0,0,1-4.81-.29,6.81,6.81,0,0,1-3.64-3.79A202.6,202.6,0,0,1,87.1,256Z"/><path class="cls-6" d="M126.79,256A162.82,162.82,0,0,1,139,193.79a7,7,0,0,1,3.59-3.68,6.76,6.76,0,0,1,4.82-.29h0a6.88,6.88,0,0,1,4.28,9.22,149.28,149.28,0,0,0,0,113.9,6.88,6.88,0,0,1-4.28,9.22h0a6.82,6.82,0,0,1-4.82-.29,6.92,6.92,0,0,1-3.59-3.68A162.85,162.85,0,0,1,126.79,256Z"/><path class="cls-7" d="M42.23,256a246.15,246.15,0,0,1,15.83-87.26,6.77,6.77,0,0,1,3.62-3.82,6.85,6.85,0,0,1,3.65,8.69,233.77,233.77,0,0,0,0,164.78,6.84,6.84,0,0,1-3.65,8.68,6.75,6.75,0,0,1-3.62-3.81A246.19,246.19,0,0,1,42.23,256Z"/><path class="cls-7" d="M87.1,256A202.6,202.6,0,0,1,101,182.07a6.88,6.88,0,0,1,3.63-3.8,6.87,6.87,0,0,1,3.63,8.82,188.87,188.87,0,0,0,0,137.82,6.86,6.86,0,0,1-3.62,8.81,6.81,6.81,0,0,1-3.64-3.79A202.6,202.6,0,0,1,87.1,256Z"/><path class="cls-7" d="M126.79,256A162.82,162.82,0,0,1,139,193.79a7,7,0,0,1,3.59-3.68,6.87,6.87,0,0,1,3.55,8.94,149.28,149.28,0,0,0,0,113.9,6.87,6.87,0,0,1-3.55,8.94,6.92,6.92,0,0,1-3.59-3.68A162.85,162.85,0,0,1,126.79,256Z"/></svg>