<svg xmlns="http://www.w3.org/2000/svg" viewBox="0 0 48 48"><defs><style>.cls-1{fill:#ffdddf;}.cls-2{fill:#fcf1ed;}.cls-3{fill:#f280a0;}.cls-4{fill:#f16d8f;}.cls-5{fill:#f89bae;}.cls-6{fill:#f6fafd;}</style></defs><title>20-bird</title><g id="_20-bird" data-name="20-bird"><path class="cls-1" d="M38,23.35c2-.97,9,0,9,3.87V28c0,1.1-.89,1-1.99,1a9.189,9.189,0,0,0-5.64-2.91,3.868,3.868,0,0,0-2.42.51L31,30V29a3.387,3.387,0,0,0,1.04-2.77C32.46,26.03,36.12,24.26,38,23.35Z"/><path class="cls-1" d="M24.65,10c-.91,1.88-2.68,5.54-2.88,5.96A3.387,3.387,0,0,0,19,17H18l3.4-5.95a3.868,3.868,0,0,0,.51-2.42A9.189,9.189,0,0,0,19,2.99C19,1.89,18.9,1,20,1h.78C24.65,1,25.62,8,24.65,10Z"/><path class="cls-2" d="M45.01,29A7.385,7.385,0,0,1,47,34a2,2,0,0,1-4,0v1a2.015,2.015,0,0,1-2,2,2.006,2.006,0,0,1-2-2v1a1.955,1.955,0,0,1-.59,1.41,2.258,2.258,0,0,1-.29.25l-.11.34L44,40l-7,7-1-5a6.536,6.536,0,0,1-6.69-1.75c-2.11-2.08-1.58-4.68-1.58-6.76a5.706,5.706,0,0,0-1.58-3.63l-.52-.52a3.665,3.665,0,0,1-1.05-2.11l-.01.03L23,26l1.7-.3a3.8,3.8,0,0,1,3.34-2.67,2.321,2.321,0,0,1,.91.04,3.856,3.856,0,0,1,3.09,3.16A3.387,3.387,0,0,1,31,29v1l5.95-3.4a3.868,3.868,0,0,1,2.42-.51A9.189,9.189,0,0,1,45.01,29Z"/><path class="cls-2" d="M22.3,23.3,22,25l-1.26-1.57.03-.01a3.665,3.665,0,0,1-2.11-1.05l-.52-.52a5.706,5.706,0,0,0-3.63-1.58c-2.08,0-4.68.53-6.76-1.58A6.536,6.536,0,0,1,6,12L1,11,8,4l2,6,.24.05a1.752,1.752,0,0,1,.35-.46A1.955,1.955,0,0,1,12,9h1a2.006,2.006,0,0,1-2-2,2.015,2.015,0,0,1,2-2h1a2,2,0,0,1,0-4,7.385,7.385,0,0,1,5,1.99,9.189,9.189,0,0,1,2.91,5.64,3.868,3.868,0,0,1-.51,2.42L18,17h1a3.387,3.387,0,0,1,2.77-1.04,3.856,3.856,0,0,1,3.16,3.09,2.321,2.321,0,0,1,.04.91A3.8,3.8,0,0,1,22.3,23.3Z"/><path class="cls-3" d="M17.53,31c1.75-.01,3.49.95,3.47,2.91-.04,4.41-5.84,9.08-7.01,9.09-.58,0-7.03-4.56-6.99-8.97.02-1.96,1.78-2.96,3.53-2.97A3.511,3.511,0,0,1,14,33.48,3.7,3.7,0,0,1,17.53,31Z"/><path class="cls-3" d="M40.53,6c1.75-.01,3.49.95,3.47,2.91-.04,4.41-5.84,9.08-7.01,9.09-.58,0-7.03-4.56-6.99-8.97.02-1.96,1.78-2.96,3.53-2.97A3.511,3.511,0,0,1,37,8.48,3.7,3.7,0,0,1,40.53,6Z"/><path class="cls-4" d="M32,10.03c.02-1.96,1.78-2.96,3.53-2.97a4.262,4.262,0,0,1,.608.037A3.425,3.425,0,0,0,33.53,6.06c-1.75.01-3.51,1.01-3.53,2.97C29.96,13.44,36.41,18,36.99,18a.961.961,0,0,0,.286-.062C35.185,16.336,31.972,13.149,32,10.03Z"/><path class="cls-5" d="M40.53,6a3.614,3.614,0,0,0-2.579,1.027c1.6.135,3.067,1.081,3.049,2.883-.027,2.959-2.645,6.029-4.72,7.736a2.3,2.3,0,0,0,.71.354c1.17-.01,6.97-4.68,7.01-9.09C44.02,6.95,42.28,5.99,40.53,6Z"/><ellipse class="cls-6" cx="41" cy="9" rx="0.825" ry="1.148" transform="translate(5.652 31.64) rotate(-45.02)"/><ellipse class="cls-6" cx="40.746" cy="10.5" rx="0.413" ry="0.574" transform="translate(4.517 31.9) rotate(-45.02)"/><path class="cls-4" d="M9,35.03c.02-1.96,1.78-2.96,3.53-2.97a4.262,4.262,0,0,1,.608.037A3.425,3.425,0,0,0,10.53,31.06c-1.75.01-3.51,1.01-3.53,2.97C6.96,38.44,13.41,43,13.99,43a.961.961,0,0,0,.286-.062C12.185,41.336,8.972,38.149,9,35.03Z"/><path class="cls-5" d="M17.53,31a3.614,3.614,0,0,0-2.579,1.027c1.6.135,3.067,1.081,3.049,2.883-.027,2.959-2.645,6.029-4.72,7.736a2.3,2.3,0,0,0,.71.354c1.17-.01,6.97-4.68,7.01-9.09C21.02,31.95,19.28,30.99,17.53,31Z"/><ellipse class="cls-6" cx="18" cy="34" rx="0.825" ry="1.148" transform="translate(-18.773 22.699) rotate(-45.02)"/><ellipse class="cls-6" cx="17.746" cy="35.5" rx="0.413" ry="0.574" transform="translate(-19.909 22.959) rotate(-45.02)"/></g></svg>